<?xml version="1.0" encoding="UTF-8" standalone="no"?>
<svg
   height="800"
   width="1200"
   id="svg16"
   xml:space="preserve"
   y="0"
   x="0"
   version="1.1"
   viewBox="-96.621 -35.7675 837.382 214.605"
   xmlns="http://www.w3.org/2000/svg"><defs
     id="defs10" /><style
     id="style2"
     type="text/css">.st0{fill:#fd0}</style><path
     id="rect24"
     opacity="0.99"
     fill="#000000"
     fill-opacity="1"
     fill-rule="nonzero"
     stroke="none"
     stroke-width="4.872"
     stroke-miterlimit="10"
     stroke-dasharray="none"
     stroke-opacity="1"
     d="M 0,-120.01062 H 644.14 V 263.08062 H 0 Z" /><path
     class="st0"
     d="m 197.54,118.62146 1.7,16.94951 -0.81,1.09784 c -1.9,2.43666 -3.75,4.07003 -6.6,4.07003 -6.23,0 -10.09,-10.28218 -10.09,-26.83005 l -0.01,-49.804266 h -6.4 V 46.994348 h 6.4 V 22.440307 l 7.68,-5.515957 v 30.069998 h 8.11 v 17.110176 h -8.11 l 0.01,47.180176 c 0,6.02471 1.5,10.17506 3.82,10.54993 1.29,0.21422 2.57,-0.80329 3.7,-2.35633 z M 386.58,46.967571 v 92.753759 h 7.68 V 46.967571 Z m 48.93,46.376879 c 0,27.01748 -7.58,47.39439 -17.64,47.39439 -10.1,0 -17.71,-20.37691 -17.71,-47.39439 0,-27.017477 7.61,-47.394385 17.71,-47.394385 10.06,0 17.64,20.376908 17.64,47.394385 z m -7.65,0 c 0,-16.306881 -4.2,-28.14209 -9.99,-28.14209 -5.83,0 -10.06,11.835209 -10.06,28.14209 0,16.30688 4.23,28.14209 10.06,28.14209 5.79,0 9.99,-11.83521 9.99,-28.14209 z m -92.82,-2.43666 c 0,0 0.7,28.89183 -11.1,28.89183 -11.8,0 -11.09,-29.052489 -11.09,-29.052489 v -74.43864 h -8.11 v 73.742451 c 0,30.846518 7.54,50.687898 19.2,50.687898 11.66,0 19.2,-19.84138 19.2,-50.527239 v -73.90311 h -8.11 V 90.90779 Z M 390.42,3.3754468 A 5.83,15.610693 0 0 0 384.59,18.98614 c 0,3.936144 0.55,7.55097 1.45,10.282172 h 8.76 c 0.9,-2.757979 1.45,-6.346028 1.45,-10.282172 A 5.83,15.610693 0 0 0 390.42,3.3754468 Z M 256.68,46.1375 c -2.31,0.803295 -4.73,2.891861 -6.89,7.524193 v -6.694122 h -7.68 v 92.753759 h 7.68 V 83.330043 c 0,-1.90113 0.12,-3.775484 0.39,-5.542733 0.66,-4.230685 1.93,-8.675582 3.79,-10.817701 1.25,-1.445931 2.44,-1.927908 3.46,-1.927908 1.11,0 2.74,0.481977 3.88,2.06179 V 47.288889 c -0.01,0 -2.32,-1.954684 -4.63,-1.151389 z M 101.06,16.335268 92.28,104.1086 81.74,16.335268 H 73.48 L 62.94,104.1086 54.15,16.308491 H 46.07 L 58.43,139.72133 h 8.08 l 11.11,-91.52204 11.1,91.52204 H 96.8 L 109.15,16.335268 Z m 24.83,124.403572 c -10.1,-0.0803 -17.66,-20.32336 -17.68,-47.367613 0,-5.971157 0.38,-11.969091 1.16,-17.565377 1.19,-8.461371 3.3,-15.932011 6.05,-21.206979 3,-5.730169 6.68,-8.648806 10.35,-8.648806 4.86,0 8.79,4.525226 11.62,12.638502 1.94,5.596287 3.25,12.692056 4.01,20.002038 0.68,6.56024 0.75,13.147256 0.75,19.921708 h -26.36 l 0.15,2.008237 c 0.97,12.45107 4.95,20.80533 9.95,20.83211 4.32,-0.0268 7.15,-5.46241 8.64,-9.47888 l 5.26,13.12048 c -3.19,9.77342 -8.39,15.7178 -13.9,15.74458 z m 8.37,-57.114255 c -0.34,-5.971157 -1.41,-11.487114 -3.19,-15.021611 -1.93,-3.829038 -3.81,-4.552003 -5.85,-4.552003 -2.83,0 -5.4,3.58805 -7.18,9.130783 -1.42,4.391344 -2.06,10.416054 -2.06,10.416054 h 18.28 z m 85.69,57.114255 c -10.1,-0.0803 -17.66,-20.32336 -17.68,-47.367613 0,-5.971157 0.38,-11.969091 1.16,-17.565377 1.19,-8.461371 3.3,-15.932011 6.05,-21.206979 3,-5.730169 6.68,-8.648806 10.35,-8.648806 4.86,0 8.79,4.525226 11.62,12.638502 1.94,5.596287 3.25,12.692056 4.01,20.002038 0.68,6.56024 0.75,13.147256 0.75,19.921708 h -26.36 l 0.15,2.008237 c 0.97,12.45107 4.95,20.80533 9.95,20.83211 4.32,-0.0268 7.15,-5.46241 8.64,-9.47888 l 5.26,13.12048 c -3.2,9.77342 -8.39,15.7178 -13.9,15.74458 z m 8.36,-57.114255 c -0.34,-5.971157 -1.41,-11.487114 -3.19,-15.021611 -1.93,-3.829038 -3.81,-4.552003 -5.85,-4.552003 -2.83,0 -5.4,3.58805 -7.18,9.130783 -1.42,4.391344 -2.06,10.416054 -2.06,10.416054 h 18.28 z m -67.27,-0.669412 c -3.34,-2.115343 -5.7,-4.391345 -5.74,-9.666313 -0.05,-7.068993 2.27,-9.211112 6.29,-9.211112 1.66,0 6.93,-0.02678 6.93,-0.02678 V 46.940795 l -6.86,0.02678 c -6.03,0 -13.61,3.480944 -13.61,27.579784 0.07,10.817702 2.82,19.198743 7.94,23.509758 1.18,0.99073 2.38,1.740471 3.54,2.490213 3.56,2.276 6.63,4.57878 6.67,11.67455 0.04,6.42635 -3.16,10.28217 -5.84,10.41605 -4.72,0 -7.84,-7.28321 -8.82,-9.93408 l -5.01,12.50462 c 0,0 4.38,15.47681 14.13,15.47681 6.39,0 12.92,-11.08546 12.81,-29.18637 -0.12,-17.913467 -6.35,-24.661142 -12.43,-28.543733 z M 366.3,45.950065 c -2.72,0 -5.9,1.231718 -8.68,6.667345 v -5.649839 h -7.68 v 92.753759 h 7.68 V 83.704914 c 0,-8.273935 2.48,-18.181236 7.35,-18.181236 4.27,0 7.15,7.765182 7.15,19.332625 v 54.865027 h 7.68 V 83.517479 c 0,-22.974228 -5.5,-37.567414 -13.5,-37.567414 z m -81.84,0 c -2.72,0 -5.9,1.231718 -8.68,6.667345 v -5.649839 h -7.68 v 92.753759 h 7.68 V 83.704914 c 0,-8.273935 2.48,-18.181236 7.35,-18.181236 4.27,0 7.15,7.765182 7.15,19.332625 v 54.865027 h 7.68 V 83.517479 c 0,-22.974228 -5.5,-37.567414 -13.5,-37.567414 z m 173.31,0 c -2.72,0 -5.9,1.231718 -8.68,6.667345 v -5.649839 h -7.68 v 92.753759 h 7.68 V 83.704914 c 0,-8.273935 2.48,-18.181236 7.35,-18.181236 4.27,0 7.15,7.765182 7.15,19.332625 v 54.865027 h 7.68 V 83.517479 c 0,-22.974228 -5.49,-37.567414 -13.5,-37.567414 z"
     id="path4"
     fill="#ffe500"
     fill-opacity="1"
     style="stroke-width:1.63635" /><path
     id="path6"
     d="M 559.16,16.335268 546.62,139.72133 h -9.1 l -9.5,-81.802175 -9.5,81.802175 h -9.04 L 496.82,16.335268 h 9.86 l 7.75,78.080242 9.06,-78.080242 h 9.12 l 9.22,78.669325 7.58,-78.669325 z m 28.97,0 v 76.179111 c 0,0.107106 0.2,10.442831 -2.29,17.538601 -1.62,4.60556 -4.05,6.93511 -7.23,6.93511 -3.18,0 -5.61,-2.32955 -7.23,-6.93511 -2.49,-7.09577 -2.29,-17.431495 -2.29,-17.538601 V 16.335268 H 565 l -5.84,57.462345 v 17.859919 c 0,15.209048 1.84,28.088538 5.32,37.272868 3.48,9.15756 8.36,14.00411 14.13,14.00411 5.76,0 10.65,-4.84655 14.13,-14.00411 3.48,-9.15755 5.32,-22.06382 5.32,-37.272868 V 16.335268 Z"
     class="st0"
     fill="#ffe500"
     fill-opacity="1"
     style="stroke-width:1.63635" /><path
     id="path8"
     d="M 491.62,139.72133 478.96,16.335268 h 3.23 l 12.67,123.386062 z m 12.17,0 -12.66,-123.386062 h -3.23 l 12.65,123.386062 z"
     fill="#ffffff"
     style="stroke-width:1.63635" /></svg>
