<?xml version="1.0" encoding="UTF-8" standalone="no"?>
<svg
   height="800"
   viewBox="0 0 582.86328 301.55396"
   width="1200"
   version="1.1"
   id="svg10"
   xmlns="http://www.w3.org/2000/svg">
  <defs
     id="defs14" />
  <g
     fill="none"
     fill-rule="evenodd"
     transform="rotate(-90,145.82517,84.893513)"
     id="g8">
    <path
       d="m 79.9417,159.8534 c -43.9416,0 -79.5631,-35.6215 -79.5631,-79.5631 0,-43.9436 35.6215,-79.5661 79.5631,-79.5661 43.9416,0 79.5631,35.6225 79.5631,79.5661 0,43.9416 -35.6215,79.5631 -79.5631,79.5631"
       fill="#ed342b"
       id="path2" />
    <path
       d="M 45.8608,80.2892 C 86.2011,62.4925 123.8866,49.4435 123.8866,49.4435 V 22.1612 c 0,0 -48.3695,16.6053 -108.8585,47.45 v 21.3561 c 60.489,30.8447 108.8585,47.4489 108.8585,47.4489 v -27.2823 c 0,0 -37.6855,-13.0479 -78.0258,-30.8447"
       fill="#fefefe"
       id="path4" />
    <path
       d="m 84.0912,422.9398 c 0,-15.4229 -16.6083,-16.6073 -16.6083,-16.6073 v 33.2116 c 0,0 16.6083,-1.1845 16.6083,-16.6043 m -33.2136,36.7719 v -53.3792 c 0,0 -17.7958,1.1844 -17.7958,24.9114 0,11.8605 3.5624,23.723 3.5624,23.723 l -18.9792,2.3739 c 0,0 -4.7478,-11.8625 -4.7478,-28.4708 0,-23.724 11.8635,-45.0761 45.0771,-45.0761 26.0969,0 42.7042,16.6083 42.7042,40.3323 0,35.5855 -35.5865,37.9564 -49.8209,35.5855 m 28.0285,-181.5094 19.5859,3.6733 c 0,0 8.606,-28.3618 -7.3426,-51.4141 H 12.8057 v 24.4816 h 63.6545 c 7.3416,9.7925 2.4459,23.2592 2.4459,23.2592 m 5.1851,-102.0465 c 0,-15.4198 -16.6083,-16.6053 -16.6083,-16.6053 v 33.2126 c 0,0 16.6083,-1.1844 16.6083,-16.6073 m -33.2136,36.772 v -53.3773 c 0,0 -17.7958,1.1855 -17.7958,24.9095 0,11.8595 3.5624,23.723 3.5624,23.723 l -18.9792,2.3739 c 0,0 -4.7478,-11.8635 -4.7478,-28.4708 0,-23.724 11.8635,-45.0771 45.0771,-45.0771 26.0969,0 42.7042,16.6083 42.7042,40.3323 0,35.5865 -35.5865,37.9574 -49.8209,35.5865 M 42.7481,337.948 c 29.8371,-12.4312 57.9361,-18.6444 57.9361,-18.6444 l -0.003,-24.8574 c 0,0 -47.9868,12.4302 -87.7493,33.5624 v 19.8788 c 39.7625,21.1332 87.7423,33.5634 87.7423,33.5634 v -24.8585 c 0,0 -28.089,-6.2131 -57.9261,-18.6443"
       fill="#03435f"
       id="path6" />
    <rect
       style="display:inline;fill:none;fill-opacity:0.179153;fill-rule:evenodd;stroke:none;stroke-width:2.23839;stroke-linecap:round;stroke-linejoin:round;paint-order:markers fill stroke"
       id="rect349"
       width="582.86328"
       height="301.55396"
       x="-60.431656"
       y="-70.218681"
       transform="rotate(90,80.5,80)" />
  </g>
</svg>
